<?xml version="1.0" encoding="UTF-8" standalone="no"?>
<!-- Created with Inkscape (http://www.inkscape.org/) -->

<svg
   viewBox="0 0 1624.9759 416.8653"
   version="1.1"
   id="svg1"
   xml:space="preserve"
   xmlns="http://www.w3.org/2000/svg"
   xmlns:svg="http://www.w3.org/2000/svg"><defs
     id="defs1" /><g
     id="layer1"
     transform="translate(620.86917,-445.2069)"><path
       fill="currentColor"
       d="m -445.41321,858.10462 c -1.20513,-2.2518 -2.19114,-17.09263 -2.19114,-32.97961 v -28.88543 l -16.32988,14.8996 c -8.98144,8.19478 -19.45082,16.58033 -23.26529,18.63456 -6.60365,3.5563 -7.11249,3.55787 -10.63747,0.0329 -3.37886,-3.37886 -3.41955,-4.20544 -0.46609,-9.46739 1.77979,-3.17092 10.81948,-11.78992 20.08819,-19.15334 9.26872,-7.36341 20.11872,-15.98654 24.11113,-19.1625 l 7.25892,-5.77449 -0.52699,-51.71673 c -0.28984,-28.44421 -0.81044,-52.0002 -1.15689,-52.34665 -0.34646,-0.34645 -8.8527,4.28444 -18.90277,10.29087 l -18.27286,10.92078 v 29.1083 c 0,31.68091 -1.58918,36.55684 -10.38119,31.8515 -3.88504,-2.07921 -4.35954,-4.67156 -4.8978,-26.75835 l -0.59601,-24.4561 -22.225,13.45392 -22.225,13.45392 -3.52444,31.67838 c -1.93845,17.42311 -3.60533,31.97977 -3.70417,32.34814 -0.0988,0.36837 -2.79909,0.36837 -6.00055,0 -5.73643,-0.66005 -5.82024,-0.88461 -5.77957,-15.48643 0.0227,-8.14916 0.85221,-20.33672 1.84337,-27.08345 l 1.80212,-12.26678 -11.04135,6.51021 c -6.07274,3.58062 -16.23899,9.83511 -22.59167,13.89887 -13.32026,8.52087 -19.31364,9.80498 -22.54816,4.83108 -3.35801,-5.16382 0.2021,-8.47367 25.30496,-23.52613 12.04379,-7.22184 21.8978,-13.77859 21.8978,-14.57055 0,-0.79197 -3.57188,-2.58983 -7.9375,-3.99523 -4.36563,-1.40541 -15.29351,-5.88626 -24.28418,-9.95744 -17.10943,-7.74753 -21.66418,-13.15353 -15.9211,-18.89661 2.71197,-2.71197 6.05806,-1.85828 27.20504,6.94092 13.26201,5.51828 25.99155,11.30229 28.28788,12.85334 6.62952,4.47793 11.99937,3.37147 24.42811,-5.03341 6.38738,-4.31944 16.23168,-10.39214 21.87622,-13.4949 l 10.26281,-5.64138 -16.61281,-9.0403 c -23.8327,-12.9692 -30.74245,-18.49594 -29.96298,-23.96575 0.38578,-2.70713 2.41561,-4.8151 4.99151,-5.18368 3.96817,-0.5678 25.86452,11.12355 46.15049,24.64161 7.72116,5.14519 8.45866,5.257 13.75833,2.08581 33.42421,-20.00018 32.64053,-19.38348 28.535,-22.45478 -6.554,-4.90297 -92.11874,-55.50978 -93.85457,-55.50978 -0.89597,0 -12.92814,4.78848 -26.73815,10.64108 -25.97224,11.00688 -33.01704,12.17108 -34.2581,5.6614 -1.16337,-6.10222 2.77623,-8.99721 24.03334,-17.66074 11.02099,-4.49171 20.03872,-8.74796 20.03941,-9.45834 6.9e-4,-0.71039 -8.582,-5.84987 -19.07264,-11.42109 -21.61198,-11.47738 -30.22163,-18.50297 -29.21039,-23.8361 1.47993,-7.80499 11.80317,-5.59194 31.16189,6.68032 26.68354,16.91576 26.50326,16.88473 24.91677,4.28816 -4.03705,-32.05361 -4.1399,-42.21261 -0.45832,-45.26805 2.64008,-2.19107 4.54403,-2.39554 7.12886,-0.76559 2.78566,1.75658 4.19392,9.054 6.70174,34.72753 l 3.175,32.50364 9.525,5.63918 c 5.23875,3.10155 25.24125,15.14777 44.45,26.76939 49.14776,29.73521 43.78482,28.11321 45.44204,13.74377 0.76982,-6.67493 0.62341,-14.20682 -0.32535,-16.73754 -0.94876,-2.53071 -11.72627,-13.31978 -23.95002,-23.97569 -25.31984,-22.07228 -27.2079,-24.49724 -22.63433,-29.07081 5.17556,-5.17556 11.93204,-1.8894 29.61394,14.40338 l 16.41645,15.12674 -0.58553,-32.36653 -0.58553,-32.36653 -25.4,-19.92719 c -27.46071,-21.54388 -31.76745,-26.76115 -25.7331,-31.17357 5.62991,-4.11669 9.24007,-2.24019 31.02802,16.1278 l 20.10508,16.94928 1.05833,-29.66108 c 1.11891,-31.35866 2.94352,-37.26939 10.11243,-32.75862 3.08302,1.93988 3.8093,6.94555 4.70424,32.42276 l 1.05833,30.12872 16.93333,-14.93039 c 9.31334,-8.21171 19.01221,-16.04431 21.55305,-17.40576 6.20984,-3.32741 11.25529,-1.04508 11.25529,5.09139 0,4.82682 -11.57752,15.6989 -41.80417,39.25696 l -8.99583,7.01117 v 31.57214 c 0,17.36468 0.74958,31.57214 1.66574,31.57214 0.91615,0 9.72678,-7.18081 19.57916,-15.95736 13.66939,-12.17676 19.16713,-15.81249 23.2051,-15.34584 4.11162,0.47516 5.29166,1.82342 5.29166,6.04599 0,4.34717 -4.94877,9.56437 -24.73505,26.07669 -26.80643,22.37088 -28.21186,24.68545 -25.51085,42.01318 l 1.56257,10.02433 32.80833,-20.20932 c 18.04459,-11.11513 39.33524,-23.65344 47.31257,-27.86291 7.97732,-4.20947 15.29168,-9.62747 16.25412,-12.04 0.96243,-2.41254 3.30319,-16.76893 5.20167,-31.90309 3.65789,-29.15969 6.46699,-35.80839 13.29219,-31.46057 4.27897,2.72581 4.49897,10.51722 1.00692,35.66098 -1.29096,9.29523 -1.99467,17.25294 -1.5638,17.68381 0.43086,0.43086 11.14055,-5.54643 23.79931,-13.28289 22.78934,-13.92779 28.32396,-15.3903 31.0784,-8.21234 1.7626,4.59327 -10.50709,15.1719 -31.06228,26.78116 l -17.21375,9.72207 14.68482,6.56807 c 34.41477,15.39267 33.00183,14.53709 32.28913,19.55192 -1.08335,7.62283 -7.77014,6.71713 -34.71579,-4.7021 -13.86733,-5.87681 -27.25149,-10.68511 -29.74257,-10.68511 -2.49108,0 -9.1605,3.17456 -14.82092,7.05458 -5.66043,3.88002 -24.10293,15.26796 -40.98335,25.30654 -35.64713,21.1989 -44.30071,26.87231 -41.01741,26.8916 1.30584,0.008 9.66967,4.77644 18.58629,10.59728 8.91663,5.82083 16.72051,10.58333 17.34198,10.58333 0.62146,0 12.54104,-6.7291 26.48795,-14.95356 13.94691,-8.22446 26.9821,-14.64079 28.9671,-14.25851 2.44015,0.46993 3.60909,2.74235 3.60909,7.01606 0,5.80566 -1.78005,7.33359 -21.83316,18.74075 l -21.83315,12.41973 12.22081,7.36173 c 6.72144,4.04894 16.24173,10.12819 21.15619,13.50943 4.91446,3.38124 10.45781,6.1477 12.31854,6.1477 1.86074,0 8.83287,-2.74056 15.49363,-6.09014 6.66076,-3.34958 19.51461,-9.16273 28.56411,-12.91812 13.56929,-5.63101 17.01946,-6.35838 19.68131,-4.14924 1.77522,1.4733 2.94358,4.61376 2.59636,6.97879 -0.48141,3.27906 -6.52981,6.84109 -25.47349,15.00189 -13.6632,5.886 -24.84765,11.17808 -24.85432,11.76016 -0.007,0.58208 2.12356,2.09855 4.73385,3.36994 11.35107,5.5287 43.18751,24.77846 46.77175,28.28031 5.01425,4.899 2.94889,12.79975 -3.34602,12.79975 -2.43466,0 -13.0861,-5.58047 -23.66987,-12.40104 -23.06238,-14.86227 -28.75729,-17.94877 -30.28973,-16.41633 -0.63742,0.63742 0.39666,9.66174 2.29795,20.05405 1.9013,10.3923 3.45691,21.34443 3.45691,24.33807 0,5.97564 -6.01162,10.53406 -10.35343,7.85067 -2.76602,-1.70949 -10.74642,-42.12812 -10.78954,-54.64625 -0.0292,-8.4805 -2.39972,-10.66656 -27.0112,-24.90944 l -19.57917,-11.33063 v 22.99593 c 0,18.08316 -0.71059,23.70652 -3.32619,26.32211 -4.16208,4.16209 -6.03109,4.17892 -9.42883,0.0849 -2.0128,-2.42527 -2.33815,-9.03503 -1.29233,-26.25431 0.80438,-13.24383 0.54043,-25.26785 -0.62178,-28.32468 -1.26885,-3.33733 -8.55574,-9.3361 -19.60434,-16.13883 l -17.58486,-10.82716 -1.12562,49.27231 c -0.61909,27.09977 -0.61909,50.75458 0,52.56624 0.61909,1.81167 11.49586,12.28917 24.1706,23.28334 27.55199,23.89881 30.03478,27.06313 25.75238,32.82149 -2.79445,3.75757 -3.48953,3.83519 -8.29492,0.92624 -2.88469,-1.74625 -13.17784,-10.2871 -22.87367,-18.97967 l -17.62877,-15.80467 -0.58963,30.47731 c -0.3495,18.06503 -1.5326,31.61352 -2.90501,33.26717 -3.31665,3.99633 -7.64922,3.44171 -10.18922,-1.30432 z M 1.1289775,752.27272 c 0,-7.50951 0.570866,-8.39176 5.820834,-8.99583 l 5.8208335,-0.66976 0.568777,-48.1039 0.568778,-48.1039 -5.3871105,-1.35208 c -5.882573,-1.47643 -9.50877799,-6.59647 -9.50877799,-13.42597 0,-4.09498 1.209025,-4.37249 19.05000049,-4.37249 17.061615,0 19.049999,0.40505 19.049999,3.88056 0,6.36606 2.427781,6.87816 6.722716,1.41804 7.4293,-9.44483 27.882136,-8.81208 40.685013,1.25866 18.14703,14.27446 21.67588,59.76783 6.074327,78.30923 -10.924096,12.98255 -28.48103,16.29057 -43.56177,8.20778 l -8.00869,-4.2924 0.631702,13.20072 c 0.579618,12.11233 1.067996,13.30209 5.923369,14.43016 4.301238,0.99933 5.414624,2.69944 5.948606,9.08335 l 0.65694,7.85391 H 26.656751 1.1289775 Z M 66.712648,701.78447 c 9.427668,-7.63406 9.307836,-40.32139 -0.184863,-50.42591 -6.00983,-6.39717 -17.097467,-6.79444 -23.065474,-0.82643 -3.692849,3.69285 -4.233334,7.05555 -4.233334,26.33831 0,20.44316 0.353661,22.35269 4.704306,25.4 6.283933,4.40144 17.026705,4.17226 22.779365,-0.48597 z m 77.472142,22.38451 c -12.49937,-3.40245 -25.63796,-17.68302 -29.96585,-32.57042 -5.75109,-19.78307 -0.92355,-43.32703 11.11644,-54.21487 11.0859,-10.02507 34.49831,-14.46071 48.36832,-9.16371 30.14903,11.51402 38.75088,57.50256 15.47795,82.75071 -11.61685,12.60279 -28.73698,17.62439 -44.99686,13.19829 z m 25.17512,-23.65869 c 5.99088,-5.99089 8.35146,-16.59346 6.9475,-31.20476 -1.36004,-14.15426 -7.14176,-21.75321 -17.20095,-22.60731 -10.8074,-0.91764 -19.45892,7.79372 -21.54311,21.69212 -3.97271,26.49193 16.62121,47.2953 31.79656,32.11995 z M 338.8597,723.5738 c -12.73205,-4.53558 -18.58614,-9.8711 -25.43216,-23.17927 -8.67596,-16.86544 -8.68804,-35.80671 -0.033,-51.70889 7.01055,-12.88069 15.10579,-18.46881 31.53449,-21.76817 14.88973,-2.99028 25.50705,-0.25533 36.50897,9.40448 10.95561,9.61916 15.40944,20.7395 15.44047,38.55184 0.0456,26.16048 -10.84608,42.1998 -33.23087,48.93663 -11.83709,3.56244 -14.18636,3.54001 -24.78791,-0.23662 z m 24.77736,-22.22634 c 11.57027,-9.10117 12.17489,-38.37175 1.03873,-50.28617 -7.82334,-8.37007 -22.20951,-5.59426 -27.75035,5.35442 -7.70167,15.21846 -5.58236,33.92864 4.90789,43.32892 7.68952,6.89056 14.4497,7.38751 21.80373,1.60283 z m -543.11285,19.96031 c -15.03177,-4.80266 -31.76868,-21.82183 -36.15425,-36.76399 -8.96283,-30.53743 0.8101,-67.1845 21.66419,-81.23752 11.88076,-8.00613 22.48117,-10.558 39.28037,-9.45608 14.99155,0.98335 33.18931,7.92618 38.94133,14.85694 2.58338,3.11279 3.60493,10.78957 2.96024,22.24584 -0.37616,6.68463 -0.65648,6.87917 -9.91211,6.87917 -9.13213,0 -9.525,-0.25705 -9.525,-6.23197 0,-16.53361 -21.34626,-24.25325 -40.21667,-14.54391 -14.22872,7.32108 -19.99571,19.07526 -20.0591,40.88421 -0.0405,13.92116 0.89208,18.79638 5.24244,27.40666 7.63755,15.11632 14.18641,19.16001 31.03015,19.16001 12.48122,0 14.27,-0.56224 18.89478,-5.93887 2.89864,-3.36987 5.1084,-8.63465 5.1084,-12.17083 0,-5.97493 0.39287,-6.23197 9.525,-6.23197 9.25563,0 9.53595,0.19454 9.91211,6.87917 1.07527,19.10787 -1.53733,24.2162 -16.26211,31.79673 -11.16927,5.75011 -36.30455,6.97942 -50.42977,2.46641 z m 102.22452,-1.45481 c -16.32025,-8.24474 -24.5214,-26.06365 -22.6787,-49.27475 1.09759,-13.82549 6.66295,-26.80284 14.71648,-34.31598 6.41476,-5.98434 30.582413,-12.13466 40.426352,-10.28792 12.074396,2.26517 24.457161,12.82447 30.48863,25.99894 4.6471395,10.15069 5.2355875,13.83429 4.3684615,27.34594 -1.2687135,19.76926 -8.6885295,33.01629 -22.6113915,40.36944 -12.707078,6.71104 -31.613223,6.78054 -44.709832,0.16433 z m 33.792808,-18.38339 c 7.784913,-7.78491 10.724661,-27.05827 6.187713,-40.56742 -3.700167,-11.01756 -7.818831,-14.60336 -16.773504,-14.60336 -14.370187,0 -23.198777,16.23801 -20.092137,36.95453 2.74026,18.27338 20.233493,28.66068 30.677928,18.21625 z m 276.751492,20.07924 c -13.16844,-4.69645 -16.55762,-8.99989 -15.83381,-20.10509 0.54006,-8.286 1.32574,-9.73534 5.60588,-10.34119 8.34197,-1.18078 15.13054,1.47378 15.13054,5.91657 0,5.39965 7.83607,10.66303 15.875,10.66303 7.8717,0 15.875,-5.23065 15.875,-10.3753 0,-6.05829 -6.34215,-10.19028 -22.52021,-14.67216 -24.74659,-6.85566 -30.40239,-11.83476 -30.38854,-26.75268 0.0176,-18.94575 14.11186,-29.52731 39.15042,-29.39295 20.81594,0.11169 34.1461,6.09708 36.03794,16.18143 2.61742,13.95207 0.96649,17.31225 -8.8576,18.02811 -8.29406,0.60436 -8.88527,0.26682 -10.22621,-5.83844 -1.63561,-7.44687 -6.44564,-10.67801 -15.8958,-10.67801 -9.39576,0 -14.81667,3.49426 -14.81667,9.55067 0,6.56965 5.53866,9.9673 24.142,14.8097 9.00158,2.3431 17.13318,6.05299 21.16667,9.65691 5.81223,5.19323 6.54967,7.15741 6.54967,17.4452 0,13.16725 -3.40084,18.36916 -16.31985,24.96275 -9.43997,4.81797 -32.44565,5.30278 -44.67443,0.94145 z m 251.50079,-3.91184 c -9.22145,-9.22144 -11.62218,-18.9565 -11.63638,-47.18592 -0.0115,-22.97848 -0.12323,-23.52351 -5.30347,-25.88379 -4.20214,-1.91462 -5.29167,-3.96269 -5.29167,-9.94716 v -7.53612 l 18.52084,0.61157 18.52083,0.61158 -0.6286,31.75 c -0.68821,34.76137 0.73219,40.77903 10.43051,44.18975 7.47429,2.62857 16.01043,0.13066 19.06633,-5.57934 1.39265,-2.60219 2.91133,-14.5625 3.37483,-26.57846 0.88607,-22.97068 -0.5574,-27.90695 -8.16058,-27.90695 -3.2254,0 -3.97416,-1.59516 -3.97416,-8.46667 v -8.46667 h 17.99167 17.99167 v 38.21011 38.21011 l 6.35,2.21362 c 5.37748,1.8746 6.35,3.31651 6.35,9.41489 v 7.20128 H 551.4623 c -13.3325,0 -16.93333,-0.6486 -16.93333,-3.05009 0,-5.38788 -3.42605,-5.40539 -10.67865,-0.0546 -5.64177,4.16237 -9.61243,5.22134 -19.57757,5.22134 -11.31734,0 -13.16093,-0.66048 -19.47893,-6.97849 z m 114.96076,0.90086 -7.01728,-6.26476 -0.67816,-32.98714 -0.67817,-32.98714 h -7.38104 c -7.37456,0 -7.38046,-0.008 -6.73016,-8.99583 0.61092,-8.44369 1.07309,-9.03654 7.53003,-9.65911 6.83622,-0.65913 6.87917,-0.73511 6.87917,-12.17083 v -11.50756 h 12.7 12.7 v 11.64167 11.64166 h 8.46667 8.46666 v 9.66764 c 0,8.7044 -0.42179,9.53377 -4.23333,8.32403 -2.32833,-0.73898 -6.13833,-0.73898 -8.46667,0 -3.94506,1.25211 -4.23333,3.20259 -4.23333,28.64317 0,24.82395 0.37127,27.49825 4.09418,29.49069 2.2518,1.20513 6.59282,2.19114 9.6467,2.19114 5.22337,0 5.51394,0.53328 4.90166,8.99583 l -0.65087,8.99584 -14.1494,0.62273 c -13.111,0.57703 -14.66437,0.16297 -21.16666,-5.64203 z m 131.62439,3.81163 c -26.83275,-11.20676 -35.28718,-53.44338 -16.22965,-81.07999 7.83812,-11.36658 34.23472,-18.90619 49.06081,-14.01314 35.08226,11.57819 42.90419,65.52194 13.00925,89.71793 -7.30792,5.91479 -9.72959,6.61912 -24.33219,7.0769 -8.9191,0.2796 -18.59781,-0.48616 -21.50822,-1.7017 z m 27.83501,-19.07104 c 10.77654,-5.76743 14.12475,-35.79018 5.4344,-48.72911 -3.81283,-5.67685 -6.48234,-7.33022 -12.67022,-7.84735 -21.01293,-1.75607 -30.19404,34.78823 -13.06014,51.98433 7.12829,7.15418 13.01853,8.48689 20.29596,4.59213 z m 188.06498,19.96796 c -18.80644,-6.12986 -22.15296,-10.03544 -20.79345,-24.2672 0.6536,-6.8421 1.07464,-7.17205 9.15179,-7.17205 7.51319,0 8.80637,0.77173 11.48315,6.85279 2.30984,5.24743 4.74033,7.17618 10.37504,8.23326 13.41538,2.51674 25.31767,-5.41972 20.24374,-13.49855 -2.50764,-3.99273 -15.29012,-9.63787 -30.26557,-13.36622 -13.53611,-3.37001 -21.36341,-11.98877 -21.35345,-23.51263 0.0169,-19.61333 13.77204,-30.16292 39.15042,-30.02674 10.25022,0.055 17.86663,1.4308 24.71281,4.46404 9.22853,4.08875 9.99415,5.03809 11.34896,14.07246 2.0472,13.65205 0.5942,16.08992 -9.58992,16.08992 -7.86901,0 -8.69333,-0.53656 -9.87105,-6.42517 -1.51517,-7.57583 -6.10883,-10.50816 -16.46165,-10.50816 -9.96764,0 -17.1287,6.66242 -13.81539,12.85339 2.55556,4.77511 4.69807,5.78215 27.4087,12.88287 13.00873,4.06732 16.70727,6.24435 20.6375,12.14759 9.28221,13.94197 3.64291,30.96579 -12.71786,38.39273 -8.53037,3.87234 -31.38535,5.47945 -39.64377,2.78767 z m -541.86665,-5.88806 c 0,-5.69668 5.00199,-11.79286 9.67619,-11.79286 2.53636,0 3.02381,-8.16202 3.02381,-50.63182 v -50.63182 l -6.35,-1.39469 c -5.73862,-1.26041 -6.35,-2.19369 -6.35,-9.69318 v -8.29849 h 19.05 19.05 v 59.86095 59.86095 l 6.35,2.39685 c 5.1665,1.95014 6.34999,3.61462 6.34999,8.93072 v 6.53387 h -25.39999 -25.4 z m 241.29999,-1.39339 c 0,-5.3161 1.1835,-6.98058 6.35,-8.93072 l 6.35,-2.39685 -0.0233,-21.23179 c -0.0341,-31.12411 -1.27896,-36.59154 -8.70226,-38.22197 -5.44712,-1.19639 -6.09111,-2.2152 -6.09111,-9.63632 v -8.29849 h 20.10833 20.10833 v 39.15834 c 0,32.71254 0.50288,39.15833 3.05498,39.15833 3.74939,0 9.64502,8.05092 9.64502,13.17097 0,3.39635 -2.47097,3.76237 -25.4,3.76237 h -25.4 z m 158.75,1.39339 c 0,-5.69668 5.002,-11.79286 9.67619,-11.79286 2.47582,0 3.02381,-5.3398 3.02381,-29.46515 v -29.46516 l -6.35,-1.39469 c -5.73861,-1.26041 -6.35,-2.19368 -6.35,-9.69318 v -8.29849 h 17.82349 17.82348 l 1.407,6.40601 1.40699,6.40601 4.16635,-5.29665 c 5.0728,-6.44903 18.24921,-10.31602 28.55991,-8.38173 10.63493,1.99513 21.37024,12.05486 24.28374,22.75555 1.47531,5.41851 1.90356,16.12593 1.11398,27.85248 -1.53268,22.7629 -0.46039,27.80432 6.27338,29.49439 4.15789,1.04357 5.09168,2.62918 5.09168,8.64594 v 7.36801 h -24.34167 -24.34166 v -7.36801 c 0,-6.09393 0.91503,-7.59767 5.29166,-8.69613 5.98699,-1.50264 6.09141,-2.12034 5.33538,-31.56087 -0.26906,-10.4775 -1.36896,-20.70562 -2.44422,-22.72917 -3.8216,-7.19192 -19.00117,-7.42509 -26.02648,-0.39979 -2.63261,2.63261 -3.32301,8.35833 -3.32301,27.55887 0,23.74744 0.10582,24.28407 5.25098,26.62836 5.81251,2.64836 8.24943,7.78467 6.21222,13.09354 -1.12764,2.93859 -5.04468,3.4732 -25.44799,3.4732 H 805.4623 Z m -146.05,-123.02349 v -9.63063 l 12.17084,0.6348 12.17083,0.63479 0.65087,8.99584 0.65087,8.99583 h -12.8217 -12.82171 z"
       id="path11" /></g></svg>
